<svg
    id="Layer"
    xmlns="http://www.w3.org/2000/svg"
    xmlns:xlink="http://www.w3.org/1999/xlink"
    viewBox="0 0 500 500"
    width="50"
    height="50"
    >
<defs>
<style>
    .cls-1{fill:url(#lingrad);}
    .cls-2{opacity:0.25;}
    .cls-3{fill:url(#lingrad_196);}
    .cls-4{fill:url(#lingrad_196-2);}
    .cls-5{fill:url(#lingrad_196-3);}
    .cls-6{fill:url(#lingrad_196-4);}
    .cls-7{fill:url(#lingrad_196-5);}
    .cls-8{fill:url(#lingrad_196-6);}
</style>
<linearGradient id="lingrad" x1="117.35" y1="46.12" x2="382.58" y2="453.82" gradientUnits="userSpaceOnUse">
    <stop offset="0" stop-color="#f6d300"/>
    <stop offset="1" stop-color="#f7931e"/>
</linearGradient>
<linearGradient id="lingrad_196" x1="117.33" y1="187.05" x2="269.3" y2="428.16" gradientUnits="userSpaceOnUse">
    <stop offset="0" stop-color="#fff"/><stop offset="1" stop-color="#e6e6e6"/>
</linearGradient>
<linearGradient id="lingrad_196-2" x1="72.65" y1="215.21" x2="224.62" y2="456.32" xlink:href="#lingrad_196"/>
<linearGradient id="lingrad_196-3" x1="271.27" y1="90.02" x2="423.24" y2="331.13" xlink:href="#lingrad_196"/>
<linearGradient id="lingrad_196-4" x1="251.53" y1="102.46" x2="403.5" y2="343.57" xlink:href="#lingrad_196"/>
<linearGradient id="lingrad_196-5" x1="216.58" y1="124.49" x2="368.55" y2="365.6" xlink:href="#lingrad_196"/>
<linearGradient id="lingrad_196-6" x1="156.37" y1="162.44" x2="308.34" y2="403.55" xlink:href="#lingrad_196"/>
</defs>
<polygon class="cls-1" points="497.05 249.99 373.51 463.96 126.46 463.96 2.95 249.99 126.46 36.04 373.51 36.04 465.8 195.88 497.05 249.99"/>
<g class="cls-2">
<path d="M135.55,266.62l.07,0a32.7,32.7,0,0,0,3.76,2,32.45,32.45,0,0,0,28.88-58l-1.74-.91-.12,0a32.18,32.18,0,0,0-9.16-2.8A32.47,32.47,0,0,0,120,238.92a32.3,32.3,0,0,0,8.87,22.28A32.64,32.64,0,0,0,135.55,266.62Z"/><path d="M152.46,277a59.89,59.89,0,0,0-59.81,57.06h64l0-.57A103.29,103.29,0,0,1,173.9,281,59.39,59.39,0,0,0,152.46,277Z"/>
<path d="M350.65,266.62l.06,0a32.84,32.84,0,0,0,3.77,2,32.45,32.45,0,0,0,28.87-58l-1.74-.91-.11,0a32.28,32.28,0,0,0-9.16-2.8,32.93,32.93,0,0,0-4.79-.35,32.47,32.47,0,0,0-16.9,60.15Z"/><path d="M367.54,277a59.11,59.11,0,0,0-21.41,4,103.18,103.18,0,0,1,17.19,52.52l0,.57h64A59.89,59.89,0,0,0,367.54,277Z"/>
<path d="M234.34,231.61l.1.06a47.5,47.5,0,0,0,5.71,3A49.29,49.29,0,0,0,284,146.48l-2.64-1.39a.45.45,0,0,1-.18-.07,49,49,0,0,0-13.91-4.25,49.35,49.35,0,0,0-56.56,48.76,49.48,49.48,0,0,0,23.62,42.08Z"/><path d="M260,247.39a91,91,0,0,0-90.85,86.68H350.84A91,91,0,0,0,260,247.39Z"/>
</g>
<path class="cls-3" d="M125.55,254.62l.07,0a32.7,32.7,0,0,0,3.76,2,32.45,32.45,0,0,0,28.88-58l-1.74-.91-.12,0a32.18,32.18,0,0,0-9.16-2.8A32.47,32.47,0,0,0,110,226.92a32.3,32.3,0,0,0,8.87,22.28A32.64,32.64,0,0,0,125.55,254.62Z"/>
<path class="cls-4" d="M142.46,265a59.89,59.89,0,0,0-59.81,57.06h64l0-.57A103.29,103.29,0,0,1,163.9,269,59.39,59.39,0,0,0,142.46,265Z"/>
<path class="cls-5" d="M340.65,254.62l.06,0a32.84,32.84,0,0,0,3.77,2,32.45,32.45,0,0,0,28.87-58l-1.74-.91-.11,0a32.28,32.28,0,0,0-9.16-2.8,32.93,32.93,0,0,0-4.79-.35,32.47,32.47,0,0,0-16.9,60.15Z"/>
<path class="cls-6" d="M357.54,265a59.11,59.11,0,0,0-21.41,4,103.18,103.18,0,0,1,17.19,52.52l0,.57h64A59.89,59.89,0,0,0,357.54,265Z"/>
<path class="cls-7" d="M224.34,219.61l.1.06a47.5,47.5,0,0,0,5.71,3A49.29,49.29,0,0,0,274,134.48l-2.64-1.39a.45.45,0,0,1-.18-.07,49,49,0,0,0-13.91-4.25,49.35,49.35,0,0,0-56.56,48.76,49.48,49.48,0,0,0,23.62,42.08Z"/>
<path class="cls-8" d="M250,235.39a91,91,0,0,0-90.85,86.68H340.84A91,91,0,0,0,250,235.39Z"/>
    </svg>
